<?xml version="1.0" standalone="no"?>
<!DOCTYPE svg PUBLIC "-//W3C//DTD SVG 20010904//EN"
 "http://www.w3.org/TR/2001/REC-SVG-20010904/DTD/svg10.dtd">
<svg version="1.0" xmlns="http://www.w3.org/2000/svg"
 width="812.000000pt" height="980.000000pt" viewBox="0 0 812.000000 980.000000"
 preserveAspectRatio="xMidYMid meet">
<metadata>
Created by potrace 1.16, written by Peter Selinger 2001-2019
</metadata>
<g transform="translate(0.000000,980.000000) scale(0.100000,-0.100000)"
fill="#000000" stroke="none">
<path d="M957 9785 c-229 -39 -427 -138 -595 -299 -183 -175 -294 -383 -336
-625 -15 -86 -16 -444 -16 -3961 0 -3517 1 -3875 16 -3961 82 -478 465 -853
944 -924 86 -13 457 -15 2857 -12 2530 3 2763 4 2823 19 465 119 774 434 878
892 13 62 16 206 19 1119 2 576 1 1047 -2 1047 -3 0 -174 -146 -380 -325
l-375 -325 -2 -698 -3 -697 -29 -63 c-37 -80 -122 -161 -203 -194 l-58 -23
-2680 -3 c-1966 -2 -2696 0 -2740 8 -77 15 -166 62 -211 113 -20 22 -50 69
-68 106 l-31 66 0 3855 0 3855 32 67 c57 120 158 197 290 218 80 13 5308 13
5387 0 123 -20 230 -102 284 -218 l27 -57 5 -700 5 -699 370 -322 c204 -178
374 -323 378 -323 4 -1 6 470 4 1047 -3 912 -6 1056 -19 1118 -92 407 -366
721 -741 850 -183 63 73 58 -2977 60 -2253 2 -2790 0 -2853 -11z"/>
<path d="M5096 7358 c-57 -16 -128 -90 -157 -163 l-24 -60 -3 -552 -3 -553
-1177 -2 -1177 -3 -60 -28 c-79 -37 -156 -114 -192 -191 l-28 -61 0 -845 0
-845 28 -61 c36 -77 113 -154 192 -191 l60 -28 1178 -3 1177 -2 0 -515 c0
-342 4 -532 11 -567 22 -101 77 -180 152 -220 45 -23 161 -35 197 -20 14 5 95
71 180 145 85 74 718 621 1405 1217 688 595 1250 1086 1250 1090 0 8 -2781
2420 -2819 2445 -30 20 -139 27 -190 13z"/>
</g>
</svg>
