<?xml version="1.0" standalone="no"?>
<!DOCTYPE svg PUBLIC "-//W3C//DTD SVG 20010904//EN"
 "http://www.w3.org/TR/2001/REC-SVG-20010904/DTD/svg10.dtd">
<svg version="1.0" xmlns="http://www.w3.org/2000/svg"
 width="812.000000pt" height="980.000000pt" viewBox="0 0 812.000000 980.000000"
 preserveAspectRatio="xMidYMid meet">
<metadata>
Created by potrace 1.16, written by Peter Selinger 2001-2019
</metadata>
<g transform="translate(0.000000,980.000000) scale(0.100000,-0.100000)"
fill="#000000" stroke="none">
<path d="M1580 9794 c-164 -25 -270 -59 -402 -127 -299 -155 -507 -431 -586
-781 -13 -62 -16 -206 -19 -1118 -2 -577 -1 -1048 2 -1048 3 0 174 146 380
325 l375 325 2 698 3 697 29 63 c37 80 122 161 203 194 l58 23 2680 3 c1966 2
2696 0 2740 -8 77 -15 166 -62 211 -113 20 -22 50 -69 68 -106 l31 -66 0
-3855 0 -3855 -32 -67 c-57 -120 -158 -197 -290 -218 -80 -13 -5308 -13 -5387
0 -123 20 -230 102 -284 218 l-27 57 -5 700 -5 699 -370 322 c-203 178 -374
323 -378 323 -4 1 -6 -470 -4 -1046 3 -913 6 -1057 19 -1119 92 -407 366 -721
741 -850 183 -63 -69 -58 2952 -62 2065 -2 2772 0 2840 9 243 31 456 133 633
303 183 175 294 383 336 625 15 86 16 444 16 3961 0 3517 -1 3875 -16 3961
-82 477 -465 852 -941 924 -85 13 -472 15 -2823 14 -1499 -1 -2736 -3 -2750
-5z"/>
<path d="M2845 7351 c-11 -5 -90 -69 -175 -143 -85 -75 -717 -622 -1405 -1218
-687 -595 -1250 -1086 -1250 -1090 0 -8 2781 -2420 2817 -2444 35 -23 119 -30
179 -16 70 17 137 82 170 165 l24 60 3 552 3 553 1177 2 1177 3 61 28 c77 36
154 113 191 192 l28 60 0 845 0 845 -28 61 c-36 77 -113 154 -192 191 l-60 28
-1177 3 -1178 2 0 515 c0 342 -4 532 -11 567 -22 101 -77 180 -153 220 -43 22
-168 34 -201 19z"/>
</g>
</svg>
